<?xml version="1.0" encoding="UTF-8" standalone="no"?>
<!DOCTYPE svg PUBLIC "-//W3C//DTD SVG 1.1//EN"
 "http://www.w3.org/Graphics/SVG/1.1/DTD/svg11.dtd">
<!-- Generated by graphviz version 8.0.1 (20230327.1645)
 -->
<!-- Pages: 1 -->
<svg width="254pt" height="206pt"
 viewBox="0.00 0.00 253.59 206.00" xmlns="http://www.w3.org/2000/svg" xmlns:xlink="http://www.w3.org/1999/xlink">
<g id="graph0" class="graph" transform="scale(1 1) rotate(0) translate(4 202)">
<polygon fill="white" stroke="none" points="-4,4 -4,-202 249.59,-202 249.59,4 -4,4"/>
<!-- 4745288704 -->
<g id="node1" class="node">
<title>4745288704</title>
<ellipse fill="none" stroke="black" cx="125.04" cy="-72" rx="29.5" ry="18"/>
<text text-anchor="middle" x="125.04" y="-68.3" font-family="Times,serif" font-size="14.00">&#45;6.00</text>
</g>
<!-- 4745288656 -->
<g id="node6" class="node">
<title>4745288656</title>
<ellipse fill="none" stroke="black" cx="218.59" cy="-126" rx="27" ry="18"/>
<text text-anchor="middle" x="218.59" y="-122.3" font-family="Times,serif" font-size="14.00">4.00</text>
</g>
<!-- 4745288704&#45;&gt;4745288656 -->
<g id="edge3" class="edge">
<title>4745288704&#45;&gt;4745288656</title>
<path fill="none" stroke="black" d="M146.82,-84.25C159.04,-91.46 174.7,-100.7 188.18,-108.65"/>
<polygon fill="black" stroke="black" points="186.14,-112.1 196.53,-114.17 189.69,-106.07 186.14,-112.1"/>
</g>
<!-- 4745288704_op -->
<g id="node2" class="node">
<title>4745288704_op</title>
<text text-anchor="middle" x="29.25" y="-122.3" font-family="Times,serif" font-size="14.00">*</text>
</g>
<!-- 4745288704_op&#45;&gt;4745288704 -->
<g id="edge1" class="edge">
<title>4745288704_op&#45;&gt;4745288704</title>
<path fill="none" stroke="black" d="M55.88,-111.24C67.52,-104.54 81.38,-96.56 93.55,-89.55"/>
<polygon fill="black" stroke="black" points="94.96,-92.21 101.88,-84.19 91.46,-86.14 94.96,-92.21"/>
</g>
<!-- 4310171168 -->
<g id="node3" class="node">
<title>4310171168</title>
<ellipse fill="none" stroke="black" cx="29.25" cy="-72" rx="29.5" ry="18"/>
<text text-anchor="middle" x="29.25" y="-68.3" font-family="Times,serif" font-size="14.00">&#45;3.00</text>
</g>
<!-- 4310171168&#45;&gt;4745288704 -->
<g id="edge6" class="edge">
<title>4310171168&#45;&gt;4745288704</title>
<path fill="none" stroke="black" d="M59.15,-72C67.09,-72 75.83,-72 84.26,-72"/>
<polygon fill="black" stroke="black" points="84.07,-75.5 94.07,-72 84.07,-68.5 84.07,-75.5"/>
</g>
<!-- 4744864976 -->
<g id="node4" class="node">
<title>4744864976</title>
<ellipse fill="none" stroke="black" cx="125.04" cy="-180" rx="30.59" ry="18"/>
<text text-anchor="middle" x="125.04" y="-176.3" font-family="Times,serif" font-size="14.00">10.00</text>
</g>
<!-- 4744864976&#45;&gt;4745288656 -->
<g id="edge4" class="edge">
<title>4744864976&#45;&gt;4745288656</title>
<path fill="none" stroke="black" d="M147.27,-167.48C159.52,-160.26 175.08,-151.07 188.45,-143.19"/>
<polygon fill="black" stroke="black" points="189.89,-145.81 196.72,-137.72 186.33,-139.78 189.89,-145.81"/>
</g>
<!-- 4310171600 -->
<g id="node5" class="node">
<title>4310171600</title>
<ellipse fill="none" stroke="black" cx="29.25" cy="-18" rx="27" ry="18"/>
<text text-anchor="middle" x="29.25" y="-14.3" font-family="Times,serif" font-size="14.00">2.00</text>
</g>
<!-- 4310171600&#45;&gt;4745288704 -->
<g id="edge5" class="edge">
<title>4310171600&#45;&gt;4745288704</title>
<path fill="none" stroke="black" d="M50.14,-29.45C62.72,-36.7 79.24,-46.21 93.47,-54.4"/>
<polygon fill="black" stroke="black" points="91.46,-57.86 101.88,-59.81 94.96,-51.79 91.46,-57.86"/>
</g>
<!-- 4745288656_op -->
<g id="node7" class="node">
<title>4745288656_op</title>
<text text-anchor="middle" x="125.04" y="-122.3" font-family="Times,serif" font-size="14.00">+</text>
</g>
<!-- 4745288656_op&#45;&gt;4745288656 -->
<g id="edge2" class="edge">
<title>4745288656_op&#45;&gt;4745288656</title>
<path fill="none" stroke="black" d="M152.03,-126C160.85,-126 170.87,-126 180.39,-126"/>
<polygon fill="black" stroke="black" points="180.22,-129.5 190.22,-126 180.22,-122.5 180.22,-129.5"/>
</g>
</g>
</svg>
